<?xml version="1.0" standalone="no"?>
<!DOCTYPE svg PUBLIC "-//W3C//DTD SVG 20010904//EN"
 "http://www.w3.org/TR/2001/REC-SVG-20010904/DTD/svg10.dtd">
<svg version="1.0" xmlns="http://www.w3.org/2000/svg"
 width="500.000000pt" height="147.000000pt" viewBox="0 0 500.000000 147.000000"
 preserveAspectRatio="xMidYMid meet">

<g transform="translate(0.000000,147.000000) scale(0.100000,-0.100000)"
fill="#000000" stroke="none">
<path d="M1442 860 c-19 -10 -37 -22 -40 -25 -8 -8 59 19 85 34 34 20 -10 11
-45 -9z"/>
<path d="M1323 807 c-3 -5 -12 -6 -22 -2 -12 5 -13 3 -5 -5 6 -6 22 -8 38 -4
33 8 41 20 15 20 -11 0 -23 -4 -26 -9z"/>
<path d="M1118 793 c6 -2 18 -2 25 0 6 3 1 5 -13 5 -14 0 -19 -2 -12 -5z"/>
<path d="M1190 789 c-19 -5 -14 -7 23 -8 26 -1 47 1 47 3 0 8 -46 12 -70 5z"/>
<path d="M1495 710 c-3 -6 1 -7 9 -4 18 7 21 14 7 14 -6 0 -13 -4 -16 -10z"/>
<path d="M1498 610 c-15 -4 -34 -15 -42 -23 -8 -8 -33 -17 -55 -21 -22 -3 -42
-10 -46 -16 -3 -5 2 -7 12 -4 10 2 54 12 98 22 93 20 114 30 94 43 -16 10 -25
10 -61 -1z"/>
<path d="M915 365 c51 -25 88 -30 144 -19 26 5 29 9 19 21 -9 11 -31 14 -87
12 -42 -2 -87 0 -101 4 -14 4 -2 -4 25 -18z"/>
</g>
</svg>
